<mxfile host="app.diagrams.net" agent="Mozilla/5.0 (Windows NT 10.0; Win64; x64) AppleWebKit/537.36 (KHTML, like Gecko) Chrome/129.0.0.0 Safari/537.36" version="24.7.16">
  <diagram name="Halaman-1" id="osFRS-GTizcgBlQg1Ev2">
    <mxGraphModel dx="1588" dy="924" grid="0" gridSize="10" guides="1" tooltips="1" connect="1" arrows="1" fold="1" page="0" pageScale="1" pageWidth="827" pageHeight="1169" math="0" shadow="0">
      <root>
        <mxCell id="0" />
        <mxCell id="1" parent="0" />
        <mxCell id="AR-VW37FAlnHvQoEPvow-1" value="" style="ellipse;whiteSpace=wrap;html=1;" vertex="1" parent="1">
          <mxGeometry x="220" y="7" width="103" height="47" as="geometry" />
        </mxCell>
        <mxCell id="AR-VW37FAlnHvQoEPvow-2" value="Mulai" style="text;strokeColor=none;fillColor=none;html=1;align=center;verticalAlign=middle;whiteSpace=wrap;rounded=0;fontSize=16;" vertex="1" parent="1">
          <mxGeometry x="241.5" y="15.5" width="60" height="30" as="geometry" />
        </mxCell>
        <mxCell id="AR-VW37FAlnHvQoEPvow-3" value="" style="endArrow=classic;html=1;rounded=0;fontSize=12;startSize=8;endSize=8;curved=1;" edge="1" parent="1">
          <mxGeometry width="50" height="50" relative="1" as="geometry">
            <mxPoint x="271" y="56.5" as="sourcePoint" />
            <mxPoint x="271" y="94" as="targetPoint" />
            <Array as="points">
              <mxPoint x="271" y="45.5" />
            </Array>
          </mxGeometry>
        </mxCell>
        <mxCell id="AR-VW37FAlnHvQoEPvow-4" value="" style="shape=hexagon;perimeter=hexagonPerimeter2;whiteSpace=wrap;html=1;fixedSize=1;" vertex="1" parent="1">
          <mxGeometry x="190.49" y="93" width="162" height="61" as="geometry" />
        </mxCell>
        <mxCell id="AR-VW37FAlnHvQoEPvow-5" value="usia:int" style="text;strokeColor=none;fillColor=none;html=1;align=center;verticalAlign=middle;whiteSpace=wrap;rounded=0;fontSize=16;" vertex="1" parent="1">
          <mxGeometry x="232.26" y="112" width="84.5" height="30" as="geometry" />
        </mxCell>
        <mxCell id="AR-VW37FAlnHvQoEPvow-7" value="" style="endArrow=classic;html=1;rounded=0;fontSize=12;startSize=8;endSize=8;curved=1;" edge="1" parent="1">
          <mxGeometry width="50" height="50" relative="1" as="geometry">
            <mxPoint x="270.82" y="160" as="sourcePoint" />
            <mxPoint x="270.82" y="204" as="targetPoint" />
            <Array as="points">
              <mxPoint x="270.82" y="149" />
              <mxPoint x="270.99" y="183" />
            </Array>
          </mxGeometry>
        </mxCell>
        <mxCell id="AR-VW37FAlnHvQoEPvow-12" value="" style="shape=parallelogram;perimeter=parallelogramPerimeter;whiteSpace=wrap;html=1;fixedSize=1;" vertex="1" parent="1">
          <mxGeometry x="205.09" y="206" width="132.82" height="59" as="geometry" />
        </mxCell>
        <mxCell id="AR-VW37FAlnHvQoEPvow-13" value="input usia" style="text;strokeColor=none;fillColor=none;html=1;align=center;verticalAlign=middle;whiteSpace=wrap;rounded=0;fontSize=16;" vertex="1" parent="1">
          <mxGeometry x="232.25" y="220.5" width="78.49" height="30" as="geometry" />
        </mxCell>
        <mxCell id="AR-VW37FAlnHvQoEPvow-18" value="" style="endArrow=classic;html=1;rounded=0;fontSize=12;startSize=8;endSize=8;curved=1;" edge="1" parent="1">
          <mxGeometry width="50" height="50" relative="1" as="geometry">
            <mxPoint x="270.83" y="266" as="sourcePoint" />
            <mxPoint x="270.83" y="303.5" as="targetPoint" />
            <Array as="points">
              <mxPoint x="270.83" y="255" />
            </Array>
          </mxGeometry>
        </mxCell>
        <mxCell id="AR-VW37FAlnHvQoEPvow-19" value="" style="rhombus;whiteSpace=wrap;html=1;" vertex="1" parent="1">
          <mxGeometry x="220" y="304" width="103.49" height="97" as="geometry" />
        </mxCell>
        <mxCell id="AR-VW37FAlnHvQoEPvow-20" value="Usia (0-12)" style="text;strokeColor=none;fillColor=none;html=1;align=center;verticalAlign=middle;whiteSpace=wrap;rounded=0;fontSize=16;" vertex="1" parent="1">
          <mxGeometry x="223.98999999999998" y="337.5" width="95" height="30" as="geometry" />
        </mxCell>
        <mxCell id="AR-VW37FAlnHvQoEPvow-36" value="False" style="endArrow=classic;html=1;rounded=0;fontSize=12;startSize=8;endSize=8;curved=1;" edge="1" parent="1">
          <mxGeometry relative="1" as="geometry">
            <mxPoint x="323.49" y="351.83" as="sourcePoint" />
            <mxPoint x="411" y="352" as="targetPoint" />
          </mxGeometry>
        </mxCell>
        <mxCell id="AR-VW37FAlnHvQoEPvow-37" value="False" style="edgeLabel;resizable=0;html=1;fontSize=12;;align=center;verticalAlign=middle;" connectable="0" vertex="1" parent="AR-VW37FAlnHvQoEPvow-36">
          <mxGeometry relative="1" as="geometry" />
        </mxCell>
        <mxCell id="AR-VW37FAlnHvQoEPvow-38" value="" style="rhombus;whiteSpace=wrap;html=1;" vertex="1" parent="1">
          <mxGeometry x="410" y="304" width="103.49" height="97" as="geometry" />
        </mxCell>
        <mxCell id="AR-VW37FAlnHvQoEPvow-40" value="False" style="endArrow=classic;html=1;rounded=0;fontSize=12;startSize=8;endSize=8;curved=1;" edge="1" parent="1">
          <mxGeometry relative="1" as="geometry">
            <mxPoint x="513.49" y="351.83" as="sourcePoint" />
            <mxPoint x="601" y="352" as="targetPoint" />
          </mxGeometry>
        </mxCell>
        <mxCell id="AR-VW37FAlnHvQoEPvow-41" value="False" style="edgeLabel;resizable=0;html=1;fontSize=12;;align=center;verticalAlign=middle;" connectable="0" vertex="1" parent="AR-VW37FAlnHvQoEPvow-40">
          <mxGeometry relative="1" as="geometry" />
        </mxCell>
        <mxCell id="AR-VW37FAlnHvQoEPvow-42" value="&lt;span style=&quot;color: rgba(0, 0, 0, 0); font-family: monospace; font-size: 0px; text-align: start; text-wrap: nowrap;&quot;&gt;%3CmxGraphModel%3E%3Croot%3E%3CmxCell%20id%3D%220%22%2F%3E%3CmxCell%20id%3D%221%22%20parent%3D%220%22%2F%3E%3CmxCell%20id%3D%222%22%20value%3D%22%22%20style%3D%22rhombus%3BwhiteSpace%3Dwrap%3Bhtml%3D1%3B%22%20vertex%3D%221%22%20parent%3D%221%22%3E%3CmxGeometry%20x%3D%22601%22%20y%3D%22304%22%20width%3D%22103.49%22%20height%3D%2297%22%20as%3D%22geometry%22%2F%3E%3C%2FmxCell%3E%3C%2Froot%3E%3C%2FmxGraphModel%3E&lt;/span&gt;" style="rhombus;whiteSpace=wrap;html=1;" vertex="1" parent="1">
          <mxGeometry x="601" y="304" width="103.49" height="97" as="geometry" />
        </mxCell>
        <mxCell id="AR-VW37FAlnHvQoEPvow-43" value="False" style="endArrow=classic;html=1;rounded=0;fontSize=12;startSize=8;endSize=8;curved=1;" edge="1" parent="1">
          <mxGeometry relative="1" as="geometry">
            <mxPoint x="704.49" y="351.83" as="sourcePoint" />
            <mxPoint x="792" y="352" as="targetPoint" />
          </mxGeometry>
        </mxCell>
        <mxCell id="AR-VW37FAlnHvQoEPvow-44" value="False" style="edgeLabel;resizable=0;html=1;fontSize=12;;align=center;verticalAlign=middle;" connectable="0" vertex="1" parent="AR-VW37FAlnHvQoEPvow-43">
          <mxGeometry relative="1" as="geometry" />
        </mxCell>
        <mxCell id="AR-VW37FAlnHvQoEPvow-45" value="&lt;span style=&quot;color: rgba(0, 0, 0, 0); font-family: monospace; font-size: 0px; text-align: start; text-wrap: nowrap;&quot;&gt;%3CmxGraphModel%3E%3Croot%3E%3CmxCell%20id%3D%220%22%2F%3E%3CmxCell%20id%3D%221%22%20parent%3D%220%22%2F%3E%3CmxCell%20id%3D%222%22%20value%3D%22%22%20style%3D%22rhombus%3BwhiteSpace%3Dwrap%3Bhtml%3D1%3B%22%20vertex%3D%221%22%20parent%3D%221%22%3E%3CmxGeometry%20x%3D%22601%22%20y%3D%22304%22%20width%3D%22103.49%22%20height%3D%2297%22%20as%3D%22geometry%22%2F%3E%3C%2FmxCell%3E%3C%2Froot%3E%3C%2FmxGraphModel%3E&lt;/span&gt;" style="rhombus;whiteSpace=wrap;html=1;" vertex="1" parent="1">
          <mxGeometry x="792" y="304" width="103.49" height="97" as="geometry" />
        </mxCell>
        <mxCell id="AR-VW37FAlnHvQoEPvow-46" value="False" style="endArrow=classic;html=1;rounded=0;fontSize=12;startSize=8;endSize=8;curved=1;" edge="1" parent="1">
          <mxGeometry relative="1" as="geometry">
            <mxPoint x="895.49" y="351.83" as="sourcePoint" />
            <mxPoint x="983" y="352" as="targetPoint" />
          </mxGeometry>
        </mxCell>
        <mxCell id="AR-VW37FAlnHvQoEPvow-47" value="False" style="edgeLabel;resizable=0;html=1;fontSize=12;;align=center;verticalAlign=middle;" connectable="0" vertex="1" parent="AR-VW37FAlnHvQoEPvow-46">
          <mxGeometry relative="1" as="geometry" />
        </mxCell>
        <mxCell id="AR-VW37FAlnHvQoEPvow-48" value="usia (13-19)" style="text;strokeColor=none;fillColor=none;html=1;align=center;verticalAlign=middle;whiteSpace=wrap;rounded=0;fontSize=16;" vertex="1" parent="1">
          <mxGeometry x="414.24" y="337.5" width="95" height="30" as="geometry" />
        </mxCell>
        <mxCell id="AR-VW37FAlnHvQoEPvow-49" value="usia (20-64)" style="text;strokeColor=none;fillColor=none;html=1;align=center;verticalAlign=middle;whiteSpace=wrap;rounded=0;fontSize=16;" vertex="1" parent="1">
          <mxGeometry x="605.24" y="337.5" width="95" height="30" as="geometry" />
        </mxCell>
        <mxCell id="AR-VW37FAlnHvQoEPvow-50" value="usia &amp;gt; 65" style="text;strokeColor=none;fillColor=none;html=1;align=center;verticalAlign=middle;whiteSpace=wrap;rounded=0;fontSize=16;" vertex="1" parent="1">
          <mxGeometry x="796.24" y="337.5" width="95" height="30" as="geometry" />
        </mxCell>
        <mxCell id="AR-VW37FAlnHvQoEPvow-54" value="" style="rounded=0;whiteSpace=wrap;html=1;" vertex="1" parent="1">
          <mxGeometry x="982" y="322.5" width="120" height="60" as="geometry" />
        </mxCell>
        <mxCell id="AR-VW37FAlnHvQoEPvow-55" value="tidak valid" style="text;strokeColor=none;fillColor=none;html=1;align=center;verticalAlign=middle;whiteSpace=wrap;rounded=0;fontSize=16;" vertex="1" parent="1">
          <mxGeometry x="1002" y="337.5" width="80" height="30" as="geometry" />
        </mxCell>
        <mxCell id="AR-VW37FAlnHvQoEPvow-56" value="" style="endArrow=classic;html=1;rounded=0;fontSize=12;startSize=8;endSize=8;curved=1;" edge="1" parent="1">
          <mxGeometry relative="1" as="geometry">
            <mxPoint x="271.08" y="401" as="sourcePoint" />
            <mxPoint x="271" y="448" as="targetPoint" />
          </mxGeometry>
        </mxCell>
        <mxCell id="AR-VW37FAlnHvQoEPvow-57" value="true" style="edgeLabel;resizable=0;html=1;fontSize=12;;align=center;verticalAlign=middle;" connectable="0" vertex="1" parent="AR-VW37FAlnHvQoEPvow-56">
          <mxGeometry relative="1" as="geometry" />
        </mxCell>
        <mxCell id="AR-VW37FAlnHvQoEPvow-58" value="" style="rounded=0;whiteSpace=wrap;html=1;" vertex="1" parent="1">
          <mxGeometry x="214.51" y="447" width="120" height="60" as="geometry" />
        </mxCell>
        <mxCell id="AR-VW37FAlnHvQoEPvow-59" value="anak" style="text;strokeColor=none;fillColor=none;html=1;align=center;verticalAlign=middle;whiteSpace=wrap;rounded=0;fontSize=16;" vertex="1" parent="1">
          <mxGeometry x="227.01" y="462" width="95" height="30" as="geometry" />
        </mxCell>
        <mxCell id="AR-VW37FAlnHvQoEPvow-62" value="v" style="endArrow=classic;html=1;rounded=0;fontSize=12;startSize=8;endSize=8;curved=1;" edge="1" parent="1">
          <mxGeometry relative="1" as="geometry">
            <mxPoint x="461.15999999999997" y="401" as="sourcePoint" />
            <mxPoint x="461.08000000000004" y="448" as="targetPoint" />
          </mxGeometry>
        </mxCell>
        <mxCell id="AR-VW37FAlnHvQoEPvow-63" value="true" style="edgeLabel;resizable=0;html=1;fontSize=12;;align=center;verticalAlign=middle;" connectable="0" vertex="1" parent="AR-VW37FAlnHvQoEPvow-62">
          <mxGeometry relative="1" as="geometry" />
        </mxCell>
        <mxCell id="AR-VW37FAlnHvQoEPvow-72" value="v" style="endArrow=classic;html=1;rounded=0;fontSize=12;startSize=8;endSize=8;curved=1;" edge="1" parent="1">
          <mxGeometry relative="1" as="geometry">
            <mxPoint x="652.16" y="401" as="sourcePoint" />
            <mxPoint x="652.08" y="448" as="targetPoint" />
          </mxGeometry>
        </mxCell>
        <mxCell id="AR-VW37FAlnHvQoEPvow-73" value="true" style="edgeLabel;resizable=0;html=1;fontSize=12;;align=center;verticalAlign=middle;" connectable="0" vertex="1" parent="AR-VW37FAlnHvQoEPvow-72">
          <mxGeometry relative="1" as="geometry" />
        </mxCell>
        <mxCell id="AR-VW37FAlnHvQoEPvow-75" value="v" style="endArrow=classic;html=1;rounded=0;fontSize=12;startSize=8;endSize=8;curved=1;" edge="1" parent="1">
          <mxGeometry relative="1" as="geometry">
            <mxPoint x="844.16" y="401" as="sourcePoint" />
            <mxPoint x="844.08" y="448" as="targetPoint" />
          </mxGeometry>
        </mxCell>
        <mxCell id="AR-VW37FAlnHvQoEPvow-76" value="true" style="edgeLabel;resizable=0;html=1;fontSize=12;;align=center;verticalAlign=middle;" connectable="0" vertex="1" parent="AR-VW37FAlnHvQoEPvow-75">
          <mxGeometry relative="1" as="geometry" />
        </mxCell>
        <mxCell id="AR-VW37FAlnHvQoEPvow-79" value="" style="rounded=0;whiteSpace=wrap;html=1;" vertex="1" parent="1">
          <mxGeometry x="401.74" y="447" width="120" height="60" as="geometry" />
        </mxCell>
        <mxCell id="AR-VW37FAlnHvQoEPvow-80" value="remaja" style="text;strokeColor=none;fillColor=none;html=1;align=center;verticalAlign=middle;whiteSpace=wrap;rounded=0;fontSize=16;" vertex="1" parent="1">
          <mxGeometry x="414.24" y="462" width="95" height="30" as="geometry" />
        </mxCell>
        <mxCell id="AR-VW37FAlnHvQoEPvow-81" value="" style="rounded=0;whiteSpace=wrap;html=1;" vertex="1" parent="1">
          <mxGeometry x="592.74" y="447" width="120" height="60" as="geometry" />
        </mxCell>
        <mxCell id="AR-VW37FAlnHvQoEPvow-82" value="dewasa" style="text;strokeColor=none;fillColor=none;html=1;align=center;verticalAlign=middle;whiteSpace=wrap;rounded=0;fontSize=16;" vertex="1" parent="1">
          <mxGeometry x="605.24" y="462" width="95" height="30" as="geometry" />
        </mxCell>
        <mxCell id="AR-VW37FAlnHvQoEPvow-83" value="" style="rounded=0;whiteSpace=wrap;html=1;" vertex="1" parent="1">
          <mxGeometry x="783.74" y="447" width="120" height="60" as="geometry" />
        </mxCell>
        <mxCell id="AR-VW37FAlnHvQoEPvow-84" value="lansia" style="text;strokeColor=none;fillColor=none;html=1;align=center;verticalAlign=middle;whiteSpace=wrap;rounded=0;fontSize=16;" vertex="1" parent="1">
          <mxGeometry x="796.24" y="462" width="95" height="30" as="geometry" />
        </mxCell>
        <mxCell id="AR-VW37FAlnHvQoEPvow-86" value="" style="endArrow=classic;html=1;rounded=0;fontSize=12;startSize=8;endSize=8;curved=1;" edge="1" parent="1">
          <mxGeometry relative="1" as="geometry">
            <mxPoint x="271.15999999999997" y="507" as="sourcePoint" />
            <mxPoint x="271.08" y="628" as="targetPoint" />
          </mxGeometry>
        </mxCell>
        <mxCell id="AR-VW37FAlnHvQoEPvow-91" value="" style="shape=parallelogram;perimeter=parallelogramPerimeter;whiteSpace=wrap;html=1;fixedSize=1;" vertex="1" parent="1">
          <mxGeometry x="205.34" y="611" width="132.82" height="59" as="geometry" />
        </mxCell>
        <mxCell id="AR-VW37FAlnHvQoEPvow-100" value="" style="shape=partialRectangle;whiteSpace=wrap;html=1;top=0;left=0;fillColor=none;" vertex="1" parent="1">
          <mxGeometry x="724" y="507" width="120" height="60" as="geometry" />
        </mxCell>
        <mxCell id="AR-VW37FAlnHvQoEPvow-104" value="" style="endArrow=classic;html=1;rounded=0;fontSize=12;startSize=8;endSize=8;curved=1;exitX=0;exitY=1;exitDx=0;exitDy=0;" edge="1" parent="1" source="AR-VW37FAlnHvQoEPvow-100">
          <mxGeometry width="50" height="50" relative="1" as="geometry">
            <mxPoint x="621" y="553" as="sourcePoint" />
            <mxPoint x="272" y="567" as="targetPoint" />
          </mxGeometry>
        </mxCell>
        <mxCell id="AR-VW37FAlnHvQoEPvow-105" value="" style="endArrow=classic;html=1;rounded=0;fontSize=12;startSize=8;endSize=8;curved=1;" edge="1" parent="1">
          <mxGeometry width="50" height="50" relative="1" as="geometry">
            <mxPoint x="461.08" y="510" as="sourcePoint" />
            <mxPoint x="461" y="569" as="targetPoint" />
            <Array as="points">
              <mxPoint x="461.08" y="499" />
            </Array>
          </mxGeometry>
        </mxCell>
        <mxCell id="AR-VW37FAlnHvQoEPvow-106" value="" style="endArrow=classic;html=1;rounded=0;fontSize=12;startSize=8;endSize=8;curved=1;" edge="1" parent="1">
          <mxGeometry width="50" height="50" relative="1" as="geometry">
            <mxPoint x="652.16" y="508" as="sourcePoint" />
            <mxPoint x="652.08" y="567" as="targetPoint" />
            <Array as="points">
              <mxPoint x="652.16" y="497" />
            </Array>
          </mxGeometry>
        </mxCell>
        <mxCell id="AR-VW37FAlnHvQoEPvow-107" value="" style="endArrow=classic;html=1;rounded=0;fontSize=12;startSize=8;endSize=8;curved=1;" edge="1" parent="1">
          <mxGeometry width="50" height="50" relative="1" as="geometry">
            <mxPoint x="270.82" y="672" as="sourcePoint" />
            <mxPoint x="270.82" y="709.5" as="targetPoint" />
            <Array as="points">
              <mxPoint x="270.82" y="661" />
            </Array>
          </mxGeometry>
        </mxCell>
        <mxCell id="AR-VW37FAlnHvQoEPvow-111" value="" style="ellipse;whiteSpace=wrap;html=1;" vertex="1" parent="1">
          <mxGeometry x="223.01" y="710" width="103" height="47" as="geometry" />
        </mxCell>
        <mxCell id="AR-VW37FAlnHvQoEPvow-112" value="selesai" style="text;strokeColor=none;fillColor=none;html=1;align=center;verticalAlign=middle;whiteSpace=wrap;rounded=0;fontSize=16;" vertex="1" parent="1">
          <mxGeometry x="241.75" y="718.5" width="60" height="30" as="geometry" />
        </mxCell>
        <mxCell id="AR-VW37FAlnHvQoEPvow-113" value="output hasil" style="text;strokeColor=none;fillColor=none;html=1;align=center;verticalAlign=middle;whiteSpace=wrap;rounded=0;fontSize=16;" vertex="1" parent="1">
          <mxGeometry x="241.49" y="625.5" width="60" height="30" as="geometry" />
        </mxCell>
      </root>
    </mxGraphModel>
  </diagram>
</mxfile>
